<svg fill="none" height="84" viewBox="0 0 84 84" width="84" xmlns="http://www.w3.org/2000/svg" xmlns:xlink="http://www.w3.org/1999/xlink"><radialGradient id="a" cx="0" cy="0" gradientTransform="matrix(0 -82.6977 76.9153 0 22.1645 89.8771)" gradientUnits="userSpaceOnUse" r="1"><stop offset="0" stop-color="#fd5"/><stop offset=".1" stop-color="#fd5"/><stop offset=".5" stop-color="#ff543e"/><stop offset="1" stop-color="#c837ab"/></radialGradient><clipPath id="b"><path d="m0 0h84v84h-84z"/></clipPath><g clip-path="url(#b)"><rect fill="url(#a)" height="83.4425" rx="41.7212" width="83.4425" y=".007813"/><path d="m33.2534 42.0078c0-4.8323 3.9162-8.7507 8.7486-8.7507 4.8323 0 8.7507 3.9184 8.7507 8.7507s-3.9184 8.7507-8.7507 8.7507c-4.8324 0-8.7486-3.9184-8.7486-8.7507zm-4.7305 0c0 7.4445 6.0346 13.4791 13.4791 13.4791s13.479-6.0346 13.479-13.4791-6.0345-13.479-13.479-13.479-13.4791 6.0345-13.4791 13.479zm24.3417-14.0135c-.0002.623.1843 1.2321.5302 1.7503.3459.5181.8377.9221 1.4132 1.1607s1.2088.3013 1.8199.18 1.1725-.4211 1.6132-.8615c.4407-.4403.741-1.0015.8627-1.6125.1218-.611.0597-1.2443-.1785-1.82s-.6417-1.0678-1.1596-1.4142c-.5179-.3463-1.1268-.5313-1.7498-.5315h-.0013c-.8351.0004-1.6359.3322-2.2265.9226-.5906.5903-.9228 1.391-.9235 2.2261zm-21.4676 35.3804c-2.5593-.1166-3.9504-.5429-4.8748-.903-1.2255-.4771-2.1-1.0454-3.0194-1.9635-.9193-.9181-1.4884-1.7917-1.9635-3.0173-.3603-.924-.7866-2.3155-.903-4.8747-.1272-2.767-.1526-3.5982-.1526-10.6082s.0275-7.8389.1526-10.6081c.1166-2.5593.546-3.948.903-4.8748.4772-1.2255 1.0454-2.1 1.9635-3.0193.9182-.9194 1.7918-1.4885 3.0194-1.9635.924-.3604 2.3155-.7867 4.8748-.903 2.7669-.1273 3.5981-.1527 10.605-.1527 7.0068 0 7.8388.0275 10.6081.1527 2.5593.1165 3.948.546 4.8747.903 1.2256.475 2.1 1.0453 3.0194 1.9635.9194.9181 1.4864 1.7938 1.9635 3.0193.3604.924.7867 2.3155.903 4.8748.1273 2.7692.1527 3.5981.1527 10.6081s-.0254 7.8389-.1527 10.6082c-.1165 2.5592-.5449 3.9503-.903 4.8747-.4771 1.2256-1.0454 2.1-1.9635 3.0173s-1.7938 1.4864-3.0194 1.9635c-.924.3603-2.3154.7866-4.8747.903-2.767.1272-3.5981.1526-10.6081.1526-7.0101 0-7.8389-.0254-10.605-.1526zm-.2174-47.4579c-2.7945.1272-4.704.5703-6.3716 1.2192-1.727.6702-3.1891 1.5692-4.65 3.0278-1.461 1.4587-2.3577 2.923-3.0278 4.6501-.6489 1.6686-1.092 3.5771-1.2193 6.3716-.1293 2.7988-.1589 3.6937-.1589 10.8223 0 7.1287.0296 8.0235.1589 10.8224.1273 2.7946.5704 4.7029 1.2193 6.3716.6701 1.726 1.567 3.192 3.0278 4.65 1.4607 1.458 2.923 2.3558 4.65 3.0278 1.6708.6489 3.5771 1.092 6.3716 1.2192 2.8004.1273 3.6937.159 10.8224.159 7.1286 0 8.0234-.0296 10.8223-.159 2.7947-.1272 4.703-.5703 6.3716-1.2192 1.726-.672 3.1891-1.5691 4.65-3.0278 1.461-1.4587 2.3558-2.924 3.0278-4.65.6489-1.6687 1.0941-3.5772 1.2193-6.3716.1272-2.801.1569-3.6937.1569-10.8224 0-7.1286-.0297-8.0235-.1569-10.8223-.1273-2.7947-.5704-4.704-1.2193-6.3716-.672-1.726-1.5691-3.1891-3.0278-4.6501-1.4586-1.4609-2.924-2.3576-4.6479-3.0278-1.6707-.6489-3.5792-1.0941-6.3716-1.2192-2.7989-.1273-3.6937-.159-10.8223-.159-7.1287 0-8.0241.0296-10.8245.159z" fill="#fff"/></g></svg>