<svg fill="none" height="84" viewBox="0 0 84 84" width="84" xmlns="http://www.w3.org/2000/svg" xmlns:xlink="http://www.w3.org/1999/xlink"><clipPath id="a"><path d="m0 0h84v84h-84z"/></clipPath><g clip-path="url(#a)"><rect fill="#0d6efd" height="83.4425" rx="41.7212" width="83.4425"/><path d="m22.528 58v-26.362h7.644v26.362zm3.822-30.037c-1.4047 0-2.548-.4083-3.43-1.225s-1.323-1.8293-1.323-3.038.441-2.2213 1.323-3.038 2.0253-1.225 3.43-1.225 2.548.392 3.43 1.176c.882.7513 1.323 1.7313 1.323 2.94 0 1.274-.441 2.3357-1.323 3.185-.8493.8167-1.9927 1.225-3.43 1.225zm26.9393 3.283c2.0906 0 3.9526.4247 5.586 1.274 1.666.8167 2.9726 2.0907 3.92 3.822.9473 1.6987 1.421 3.8873 1.421 6.566v15.092h-7.644v-13.916c0-2.1233-.4737-3.6913-1.421-4.704-.9147-1.0127-2.2214-1.519-3.92-1.519-1.2087 0-2.303.2613-3.283.784-.9474.49-1.6987 1.2577-2.254 2.303-.5227 1.0453-.784 2.3847-.784 4.018v13.034h-7.644v-26.362h7.301v7.301l-1.372-2.205c.9473-1.764 2.303-3.1197 4.067-4.067s3.773-1.421 6.027-1.421z" fill="#fff"/></g></svg>