<svg fill="none" height="84" viewBox="0 0 84 84" width="84" xmlns="http://www.w3.org/2000/svg" xmlns:xlink="http://www.w3.org/1999/xlink"><clipPath id="a"><path d="m0 0h84v84h-84z"/></clipPath><g clip-path="url(#a)"><circle cx="42" cy="42" fill="#fff" r="40"/><g fill="#000"><path d="m37.5223.30744c-14.7572 1.54-27.94291 11.25546-33.93715 25.00396-3.862884 8.876-4.505764 19.096-1.76288 28.5046 3.388 11.7314 12.15203 21.6429 23.49203 26.6 8.876 3.8629 19.096 4.5058 28.5051 1.7629 14.0829-4.06 25.1714-15.6229 28.8114-29.988 5.6829-22.5115-8.2605-45.52914-30.8285-50.90346-4.9572-1.176-9.3229-1.48456-14.28-.98zm.56 26.01196c3.5828 4.76 6.608 8.68 6.72 8.68s3.8371-3.92 8.232-8.68l8.036-8.68h4.564l-.98 1.0372c-.56.5857-4.2 4.5343-8.092 8.7628-3.892 4.228-7.7 8.3429-8.4572 9.1l-1.3428 1.428 10.5 13.972c5.768 7.7 10.5 14.0829 10.5 14.1972 0 .14-3.4429.2228-7.6172.2228l-7.6428-.028-7.112-9.52c-4.9-6.58-7.196-9.4096-7.42-9.24-.168.14-4.1452 4.4252-8.848 9.52l-8.54 9.268h-2.1572c-1.2028 0-2.1828-.0571-2.1828-.14 0-.0828 4.452-4.9571 9.8828-10.808 5.4057-5.852 9.8857-10.752 9.94-10.8348.0292-.1143-4.4228-6.1892-9.8828-13.4972-5.46-7.28-9.94-13.3-9.94-13.3571 0-.0543 3.4428-.0829 7.672-.0829h7.6708z"/><path d="m23.157 21.392c.1115.196 7.1658 9.66 15.6229 20.9709l15.4 20.6085 3.4429.0286c2.1286 0 3.4171-.112 3.36-.28-.0258-.14-7.0543-9.6029-15.5658-21l-15.5142-20.72h-3.4709c-2.8829 0-3.472.0571-3.2749.392z"/></g></g></svg>