<svg fill="none" height="84" viewBox="0 0 84 84" width="84" xmlns="http://www.w3.org/2000/svg" xmlns:xlink="http://www.w3.org/1999/xlink"><clipPath id="a"><path d="m0 0h84v84h-84z"/></clipPath><g clip-path="url(#a)"><rect fill="#0d6efd" height="83.4425" rx="41.7212" width="83.4425"/><path d="m67.7804 29.6281c-1.7216.7688-3.5732 1.2819-5.5264 1.5246 1.9857-1.1887 3.5134-3.0847 4.2304-5.3245-1.8582 1.0983-3.9168 1.9052-6.1068 2.3303-1.7489-1.8697-4.2434-3.0296-7.0072-3.0296-5.3091 0-9.6123 4.301-9.6123 9.6045 0 .7505.0872 1.4814.2511 2.1912-7.987-.4041-15.071-4.2328-19.8101-10.0427-.8328 1.4196-1.3013 3.0821-1.3013 4.8363 0 3.334 1.6929 6.2692 4.2746 7.9985-1.5758-.0485-3.0592-.4907-4.3579-1.1992v.1128c0 4.6592 3.3143 8.5391 7.7073 9.4221-.8028.2218-1.6513.3451-2.5257.3451-.6207 0-1.2258-.0708-1.8113-.1771 1.2231 3.8077 4.7716 6.5906 8.976 6.6733-3.2896 2.5717-7.4328 4.112-11.9377 4.112-.7781 0-1.5393-.0446-2.2915-.1364 4.2564 2.7173 9.3105 4.3102 14.7353 4.3102 17.6775 0 27.3483-14.6377 27.3483-27.3361 0-.4159-.013-.8305-.0325-1.2399 1.8868-1.3436 3.5134-3.0388 4.7977-4.9754z" fill="#fff"/></g></svg>