<svg fill="none" height="84" viewBox="0 0 84 84" width="84" xmlns="http://www.w3.org/2000/svg" xmlns:xlink="http://www.w3.org/1999/xlink"><clipPath id="a"><path d="m0 0h84v84h-84z"/></clipPath><g clip-path="url(#a)"><rect fill="#303030" height="83.4425" rx="41.7212" width="83.4425"/><g clip-rule="evenodd" fill-rule="evenodd"><path d="m52.8496 34.9323c3.2833 2.3458 7.3063 3.725 11.65 3.725v-8.3563c-.8229 0-1.6417-.0854-2.4458-.2562v6.5771c-4.3438 0-8.3646-1.3813-11.65-3.725v17.05c0 8.5291-6.9188 15.4437-15.4521 15.4437-3.1833 0-6.1438-.9625-8.6021-2.6125 2.8063 2.8667 6.7188 4.6459 11.0479 4.6459 8.5334 0 15.4521-6.9146 15.4521-15.4438zm3.0188-8.4292c-1.6771-1.8312-2.7792-4.2-3.0188-6.8187v-1.075h-2.3187c.5833 3.3271 2.575 6.1708 5.3375 7.8937zm-24.1209 29.7313c-.9375-1.2292-1.4437-2.7313-1.4416-4.2771 0-3.9021 3.1645-7.0646 7.0687-7.0646.7271 0 1.45.1104 2.1438.3313v-8.5417c-.8105-.1104-1.6271-.1583-2.4459-.1417v6.6479c-.6937-.2208-1.4166-.3312-2.1458-.3312-3.9042 0-7.0688 3.1625-7.0688 7.0646.0021 2.7604 1.5834 5.15 3.8896 6.3125z" fill="#ec407a"/><path d="m50.4034 32.8969c3.2833 2.3458 7.3062 3.725 11.65 3.725v-6.5771c-2.425-.5167-4.5709-1.7833-6.1854-3.5438-2.7625-1.7229-4.7521-4.5645-5.3354-7.8916h-6.0896v33.3708c-.0146 3.8896-3.1729 7.0396-7.0688 7.0396-2.2958 0-4.3354-1.0938-5.6271-2.7875-2.3062-1.1625-3.8875-3.5521-3.8875-6.3104 0-3.9021 3.1646-7.0646 7.0688-7.0646.7479 0 1.4687.1167 2.1458.3312v-6.6458c-8.3833.1729-15.125 7.0188-15.125 15.4396 0 4.2042 1.6792 8.0146 4.4042 10.7979 2.4583 1.65 5.4187 2.6125 8.6021 2.6125 8.5333 0 15.452-6.9146 15.452-15.4437z" fill="#fff"/><path d="m62.0542 30.0471v-1.7791c-2.1875.0041-4.3292-.6084-6.1854-1.7667 1.6416 1.7979 3.8041 3.0375 6.1854 3.5458zm-11.523-11.4375c-.0562-.3187-.0979-.6375-.127-.9604v-1.075h-8.4084v33.3729c-.0125 3.8896-3.1729 7.0396-7.0687 7.0396-1.1438 0-2.2229-.2708-3.1792-.7541 1.2917 1.6937 3.3313 2.7875 5.6271 2.7875 3.8958 0 7.0542-3.15 7.0688-7.0396v-33.3709zm-13.4583 17.9334v-1.8938c-.7021-.0958-1.4104-.1437-2.1208-.1437-8.5354 0-15.4521 6.9146-15.4521 15.4437 0 5.3479 2.7188 10.0604 6.85 12.8313-2.725-2.7834-4.4042-6.5938-4.4042-10.7979 0-8.4209 6.7438-15.2667 15.1271-15.4396z" fill="#81d4fa"/></g></g></svg>