<svg fill="none" height="84" viewBox="0 0 84 84" width="84" xmlns="http://www.w3.org/2000/svg"><rect fill="#009559" height="84" rx="42" width="84"/><path d="m59.3821 24.2595c-4.3626-4.5027-10.3934-6.947-16.5524-6.947-13.0879 0-23.6096 10.6778-23.4813 23.6714 0 4.1167 1.1548 8.1048 3.0795 11.707l-3.3361 12.2216 12.4464-3.2162c3.4644 1.9297 7.3138 2.8303 11.1632 2.8303 12.9596 0 23.4813-10.6779 23.4813-23.6714 0-6.3038-2.4379-12.2216-6.8006-16.5957zm-16.5524 36.2789c-3.4644 0-6.9289-.9005-9.8801-2.7016l-.7699-.3859-7.4421 1.9297 1.9247-7.333-.5133-.7719c-5.6458-9.134-2.9512-21.227 6.2874-26.8875 9.2385-5.6606 21.1716-2.9589 26.8174 6.3038s2.9512 21.227-6.2873 26.8875c-2.9512 1.9298-6.544 2.9589-10.1368 2.9589zm11.2916-14.28-1.4115-.6432s-2.053-.9005-3.3361-1.5438c-.1283 0-.2566-.1286-.3849-.1286-.385 0-.6416.1286-.8982.2573 0 0-.1284.1286-1.9247 2.187-.1284.2573-.385.3859-.6416.3859h-.1283c-.1283 0-.385-.1286-.5133-.2573l-.6415-.2573c-1.4115-.6432-2.6946-1.4151-3.7211-2.4443-.2566-.2573-.6416-.5146-.8982-.7719-.8982-.9005-1.7964-1.9297-2.438-3.0875l-.1283-.2573c-.1283-.1287-.1283-.2573-.2566-.5146 0-.2573 0-.5146.1283-.6433 0 0 .5133-.6432.8982-1.0292.2566-.2573.3849-.6432.6416-.9005.2566-.3859.3849-.9005.2566-1.2865-.1283-.6432-1.6681-4.1167-2.053-4.8886-.2566-.386-.5133-.5146-.8982-.6433h-.3849c-.2567 0-.6416 0-1.0265 0-.2567 0-.5133.1287-.7699.1287l-.1283.1286c-.2567.1287-.5133.386-.7699.5146-.2566.2573-.385.5146-.6416.7719-.8982 1.1578-1.4114 2.573-1.4114 3.9881 0 1.0292.2566 2.0584.6415 2.9589l.1284.386c1.1548 2.4443 2.6945 4.6313 4.7475 6.5611l.5133.5146c.3849.3859.7699.6432 1.0265 1.0291 2.6946 2.3157 5.7741 3.9882 9.2385 4.8887.385.1286.8982.1286 1.2832.2573h1.2831c.6416 0 1.4114-.2573 1.9247-.5146.3849-.2573.6416-.2573.8982-.5146l.2566-.2573c.2566-.2573.5133-.3859.7699-.6432s.5133-.5146.6416-.7719c.2566-.5146.3849-1.1579.5132-1.8011 0-.2573 0-.6433 0-.9006 0 0-.1283-.1286-.3849-.2573z" fill="#fff"/></svg>