<svg width="25" height="24" viewBox="0 0 25 24" fill="none" xmlns="http://www.w3.org/2000/svg">
<path d="M20.8018 3.40541C18.6577 1.1982 15.6937 0 12.6667 0C6.23423 0 1.06306 5.23423 1.12613 11.6036C1.12613 13.6216 1.69369 15.5766 2.63964 17.3423L1 23.3333L7.11712 21.7568C8.81982 22.7027 10.7117 23.1441 12.6036 23.1441C18.973 23.1441 24.1441 17.9099 24.1441 11.5405C24.1441 8.45045 22.946 5.54955 20.8018 3.40541ZM12.6667 21.1892C10.964 21.1892 9.26126 20.7477 7.81081 19.8649L7.43243 19.6757L3.77478 20.6216L4.72072 17.027L4.46847 16.6486C1.69369 12.1712 3.01802 6.24324 7.55856 3.46847C12.0991 0.693693 17.964 2.01802 20.7387 6.55856C23.5135 11.0991 22.1892 16.964 17.6486 19.7387C16.1982 20.6847 14.4324 21.1892 12.6667 21.1892ZM18.2162 14.1892L17.5225 13.8739C17.5225 13.8739 16.5135 13.4324 15.8829 13.1171C15.8198 13.1171 15.7568 13.0541 15.6937 13.0541C15.5045 13.0541 15.3784 13.1171 15.2523 13.1802C15.2523 13.1802 15.1892 13.2432 14.3063 14.2523C14.2432 14.3784 14.1171 14.4414 13.991 14.4414H13.9279C13.8649 14.4414 13.7387 14.3784 13.6757 14.3153L13.3604 14.1892C12.6667 13.8739 12.036 13.4955 11.5315 12.991C11.4054 12.8649 11.2162 12.7387 11.0901 12.6126C10.6486 12.1712 10.2072 11.6667 9.89189 11.0991L9.82883 10.973C9.76577 10.9099 9.76577 10.8468 9.7027 10.7207C9.7027 10.5946 9.7027 10.4685 9.76577 10.4054C9.76577 10.4054 10.018 10.0901 10.2072 9.9009C10.3333 9.77478 10.3964 9.58559 10.5225 9.45946C10.6487 9.27027 10.7117 9.01802 10.6486 8.82883C10.5856 8.51351 9.82883 6.81081 9.63964 6.43243C9.51351 6.24324 9.38739 6.18018 9.1982 6.11712H9.00901C8.88288 6.11712 8.69369 6.11712 8.5045 6.11712C8.37838 6.11712 8.25225 6.18018 8.12613 6.18018L8.06306 6.24324C7.93694 6.30631 7.81081 6.43243 7.68469 6.4955C7.55856 6.62162 7.4955 6.74775 7.36937 6.87387C6.92793 7.44144 6.67568 8.13514 6.67568 8.82883C6.67568 9.33333 6.8018 9.83784 6.99099 10.2793L7.05405 10.4685C7.62162 11.6667 8.37838 12.7387 9.38739 13.6847L9.63964 13.9369C9.82883 14.1261 10.018 14.2523 10.1441 14.4414C11.4685 15.5766 12.982 16.3964 14.6847 16.8378C14.8739 16.9009 15.1261 16.9009 15.3153 16.964C15.5045 16.964 15.7568 16.964 15.9459 16.964C16.2613 16.964 16.6396 16.8378 16.8919 16.7117C17.0811 16.5856 17.2072 16.5856 17.3333 16.4595L17.4595 16.3333C17.5856 16.2072 17.7117 16.1441 17.8378 16.018C17.964 15.8919 18.0901 15.7658 18.1532 15.6396C18.2793 15.3874 18.3423 15.0721 18.4054 14.7568C18.4054 14.6306 18.4054 14.4414 18.4054 14.3153C18.4054 14.3153 18.3423 14.2523 18.2162 14.1892Z" fill="#FDAE00"/>
</svg>
