<svg width="24" height="24" viewBox="0 0 24 24" fill="none" xmlns="http://www.w3.org/2000/svg">
<circle cx="12.5" cy="11.5" r="10.5" stroke="white" stroke-width="2"/>
<path d="M17.5226 13.8739L18.2163 14.1893C18.3424 14.2523 18.4055 14.3154 18.4055 14.3154V14.7568C18.3424 15.0721 18.2794 15.3875 18.1533 15.6397C18.0902 15.7658 17.9641 15.892 17.8379 16.0181L17.8379 16.0181C17.7118 16.1442 17.5857 16.2073 17.4596 16.3334L17.3334 16.4595C17.2073 16.5857 17.0812 16.5857 16.892 16.7118C16.6397 16.8379 16.2614 16.964 15.9461 16.964H15.3154C15.1262 16.901 14.874 16.901 14.6848 16.8379C12.9821 16.3965 11.4686 15.5766 10.1442 14.4415C10.0181 14.2523 9.82893 14.1262 9.63975 13.937L9.38749 13.6848C8.37848 12.7388 7.62173 11.6667 7.05416 10.4685L6.9911 10.2793C6.80191 9.83791 6.67578 9.3334 6.67578 8.8289C6.67578 8.13521 6.92803 7.44151 7.36947 6.87394C7.4956 6.74782 7.55866 6.62169 7.68479 6.49557C7.81092 6.4325 7.93704 6.30638 8.06317 6.24331L8.12623 6.18025C8.25236 6.18025 8.37848 6.11719 8.50461 6.11719H9.00911H9.1983C9.38749 6.18025 9.51362 6.24331 9.63975 6.4325C9.82893 6.81088 10.5857 8.51358 10.6488 8.8289C10.7118 9.01809 10.6488 9.27034 10.5226 9.45953C10.3965 9.58566 10.3334 9.77485 10.2073 9.90097C10.0181 10.0902 9.76587 10.4055 9.76587 10.4055C9.70281 10.4685 9.70281 10.5947 9.70281 10.7208C9.76587 10.8469 9.76587 10.91 9.82893 10.973L9.892 11.0992C10.2073 11.6667 10.6488 12.1712 11.0902 12.6127C11.2163 12.7388 11.4055 12.8649 11.5316 12.9911C12.0361 13.4956 12.6668 13.8739 13.3605 14.1893L13.6758 14.3154C13.7388 14.3784 13.865 14.4415 13.928 14.4415H13.9911C14.1172 14.4415 14.2433 14.3784 14.3064 14.2523C15.1893 13.2433 15.2524 13.1803 15.2524 13.1803C15.3785 13.1172 15.5046 13.0541 15.6938 13.0541C15.7569 13.0541 15.8199 13.1172 15.883 13.1172C16.5136 13.4325 17.5226 13.8739 17.5226 13.8739Z" fill="white"/>
</svg>
