<svg width="30" height="30" viewBox="0 0 30 30" fill="none" xmlns="http://www.w3.org/2000/svg">
<g clip-path="url(#clip0_2143_540)">
<path d="M0 15C0 6.71573 6.71573 0 15 0H28C29.1046 0 30 0.895431 30 2V15C30 23.2843 23.2843 30 15 30V30C6.71573 30 0 23.2843 0 15V15Z" fill="#0077B5"/>
<path d="M23.7297 22.1194C22.6912 22.0947 21.6773 22.0947 20.6388 22.1194C20.4162 22.1194 20.3668 22.07 20.3668 21.8474C20.3668 20.0176 20.3668 18.163 20.3668 16.3332C20.3668 15.9128 20.342 15.4925 20.2184 15.0968C19.8475 13.811 18.3638 13.3412 17.3006 14.2066C16.7318 14.6517 16.5093 15.2699 16.5093 16.0117C16.5093 17.7427 16.5093 19.4736 16.5093 21.2045C16.5093 21.4271 16.4846 21.6496 16.5093 21.8969C16.534 22.0947 16.4351 22.1442 16.262 22.1194C15.1987 22.1194 14.1602 22.1194 13.0969 22.1194C12.8991 22.1194 12.8496 22.07 12.8496 21.8722C12.8743 20.3143 12.8743 18.7565 12.8743 17.1739C12.8743 15.2452 12.8743 13.3164 12.8496 11.4124C12.8496 11.1899 12.8991 11.1404 13.0969 11.1404C14.1602 11.1404 15.1987 11.1404 16.262 11.1404C16.4598 11.1404 16.5093 11.1899 16.5093 11.3877C16.5093 11.7833 16.5093 12.179 16.5093 12.6488C16.5835 12.5746 16.6082 12.5499 16.6329 12.5252C17.5973 11.1157 18.9573 10.7201 20.5646 10.9673C22.4192 11.2641 23.6061 12.5499 23.9028 14.5281C23.977 14.9979 24.0017 15.4677 24.0017 15.9376C24.0017 17.9158 24.0017 19.8692 24.0017 21.8474C24.0017 22.0453 23.9523 22.1194 23.7297 22.1194Z" fill="white"/>
<path d="M10.8693 16.6301C10.8693 18.3611 10.8693 20.092 10.8693 21.8229C10.8693 22.0455 10.8199 22.1196 10.5973 22.1196C9.55876 22.0949 8.52021 22.1196 7.48165 22.1196C7.28383 22.1196 7.23438 22.0702 7.23438 21.8724C7.23438 18.3858 7.23438 14.8745 7.23438 11.3879C7.23438 11.2148 7.28383 11.1406 7.48165 11.1406C8.54493 11.1406 9.60822 11.1406 10.6715 11.1406C10.894 11.1406 10.9188 11.2148 10.9188 11.4126C10.8693 13.1436 10.8693 14.8745 10.8693 16.6301Z" fill="white"/>
<path d="M11.0424 8.27259C10.7951 9.2617 9.78129 9.83043 8.6191 9.63261C7.38273 9.43479 6.69036 8.22314 7.13545 7.03622C7.43218 6.29439 8.14928 5.8493 9.0642 5.87403C10.4489 5.8493 11.3639 6.96204 11.0424 8.27259Z" fill="white"/>
</g>
<defs>
<clipPath id="clip0_2143_540">
<rect width="30" height="30" fill="white"/>
</clipPath>
</defs>
</svg>
