<svg width="24" height="24" viewBox="0 0 24 24" fill="none" xmlns="http://www.w3.org/2000/svg">
<path fill-rule="evenodd" clip-rule="evenodd" d="M11.5691 22C9.70292 22 7.83673 21.5163 6.24701 20.5489L5.83229 20.3416L1.82343 21.3781L2.86021 17.4395L2.58373 17.0249C-0.457476 12.1189 0.99401 5.62362 5.97053 2.58328C10.9471 -0.457061 17.3751 0.994011 20.4163 5.96911C23.4575 10.9442 22.006 17.3704 17.0295 20.4107C15.4397 21.4472 13.5044 22 11.5691 22Z" fill="#0DC143"/>
<path d="M19.8018 3.40541C17.6577 1.1982 14.6937 0 11.6667 0C5.23423 0 0.0630631 5.23423 0.126126 11.6036C0.126126 13.6216 0.693694 15.5766 1.63964 17.3423L0 23.3333L6.11712 21.7568C7.81982 22.7027 9.71171 23.1441 11.6036 23.1441C17.973 23.1441 23.1441 17.9099 23.1441 11.5405C23.1441 8.45045 21.946 5.54955 19.8018 3.40541ZM11.6667 21.1892C9.96396 21.1892 8.26126 20.7477 6.81081 19.8649L6.43243 19.6757L2.77478 20.6216L3.72072 17.027L3.46847 16.6486C0.693693 12.1712 2.01802 6.24324 6.55856 3.46847C11.0991 0.693693 16.964 2.01802 19.7387 6.55856C22.5135 11.0991 21.1892 16.964 16.6486 19.7387C15.1982 20.6847 13.4324 21.1892 11.6667 21.1892ZM17.2162 14.1892L16.5225 13.8739C16.5225 13.8739 15.5135 13.4324 14.8829 13.1171C14.8198 13.1171 14.7568 13.0541 14.6937 13.0541C14.5045 13.0541 14.3784 13.1171 14.2523 13.1802C14.2523 13.1802 14.1892 13.2432 13.3063 14.2523C13.2432 14.3784 13.1171 14.4414 12.991 14.4414H12.9279C12.8649 14.4414 12.7387 14.3784 12.6757 14.3153L12.3604 14.1892C11.6667 13.8739 11.036 13.4955 10.5315 12.991C10.4054 12.8649 10.2162 12.7387 10.0901 12.6126C9.64865 12.1712 9.20721 11.6667 8.89189 11.0991L8.82883 10.973C8.76577 10.9099 8.76577 10.8468 8.7027 10.7207C8.7027 10.5946 8.7027 10.4685 8.76577 10.4054C8.76577 10.4054 9.01802 10.0901 9.20721 9.9009C9.33333 9.77478 9.3964 9.58559 9.52252 9.45946C9.64865 9.27027 9.71171 9.01802 9.64865 8.82883C9.58559 8.51351 8.82883 6.81081 8.63964 6.43243C8.51351 6.24324 8.38739 6.18018 8.1982 6.11712H8.00901C7.88288 6.11712 7.69369 6.11712 7.5045 6.11712C7.37838 6.11712 7.25225 6.18018 7.12613 6.18018L7.06306 6.24324C6.93694 6.30631 6.81081 6.43243 6.68469 6.4955C6.55856 6.62162 6.4955 6.74775 6.36937 6.87387C5.92793 7.44144 5.67568 8.13514 5.67568 8.82883C5.67568 9.33333 5.8018 9.83784 5.99099 10.2793L6.05405 10.4685C6.62162 11.6667 7.37838 12.7387 8.38739 13.6847L8.63964 13.9369C8.82883 14.1261 9.01802 14.2523 9.14414 14.4414C10.4685 15.5766 11.982 16.3964 13.6847 16.8378C13.8739 16.9009 14.1261 16.9009 14.3153 16.964C14.5045 16.964 14.7568 16.964 14.9459 16.964C15.2613 16.964 15.6396 16.8378 15.8919 16.7117C16.0811 16.5856 16.2072 16.5856 16.3333 16.4595L16.4595 16.3333C16.5856 16.2072 16.7117 16.1441 16.8378 16.018C16.964 15.8919 17.0901 15.7658 17.1532 15.6396C17.2793 15.3874 17.3423 15.0721 17.4054 14.7568C17.4054 14.6306 17.4054 14.4414 17.4054 14.3153C17.4054 14.3153 17.3423 14.2523 17.2162 14.1892Z" fill="white"/>
</svg>
