<svg width="30" height="30" viewBox="0 0 30 30" fill="none" xmlns="http://www.w3.org/2000/svg">
<g clip-path="url(#clip0_2036_671)">
<rect width="30" height="30" rx="15" fill="url(#paint0_radial_2036_671)"/>
<path d="M0 15C0 6.71573 6.71573 0 15 0H28C29.1046 0 30 0.895431 30 2V15C30 23.2843 23.2843 30 15 30C6.71573 30 0 23.2843 0 15Z" fill="url(#paint1_radial_2036_671)"/>
<path d="M0 15C0 6.71573 6.71573 0 15 0H28C29.1046 0 30 0.895431 30 2V15C30 23.2843 23.2843 30 15 30C6.71573 30 0 23.2843 0 15Z" fill="url(#paint2_radial_2036_671)"/>
<path d="M11.8755 15C11.8755 13.2742 13.2742 11.8747 15 11.8747C16.7258 11.8747 18.1252 13.2742 18.1252 15C18.1252 16.7258 16.7258 18.1252 15 18.1252C13.2742 18.1252 11.8755 16.7258 11.8755 15ZM10.186 15C10.186 17.6587 12.3412 19.8139 15 19.8139C17.6587 19.8139 19.8139 17.6587 19.8139 15C19.8139 12.3412 17.6587 10.186 15 10.186C12.3412 10.186 10.186 12.3412 10.186 15ZM18.8795 9.99517C18.8794 10.2177 18.9453 10.4352 19.0689 10.6203C19.1924 10.8053 19.3681 10.9496 19.5736 11.0348C19.7791 11.12 20.0053 11.1424 20.2236 11.0991C20.4418 11.0558 20.6423 10.9487 20.7997 10.7914C20.9571 10.6342 21.0643 10.4338 21.1078 10.2155C21.1513 9.99733 21.1291 9.77112 21.0441 9.56552C20.959 9.35992 20.8149 9.18416 20.6299 9.06047C20.445 8.93678 20.2275 8.87071 20.005 8.87063H20.0045C19.7063 8.87076 19.4203 8.98927 19.2093 9.20012C18.9984 9.41098 18.8798 9.69693 18.8795 9.99517ZM11.2125 22.631C10.2985 22.5894 9.80167 22.4371 9.47152 22.3085C9.03382 22.1381 8.72152 21.9352 8.39317 21.6073C8.06482 21.2794 7.86157 20.9674 7.69192 20.5297C7.56322 20.1997 7.41097 19.7027 7.36942 18.7887C7.32397 17.8005 7.3149 17.5036 7.3149 15.0001C7.3149 12.4965 7.32472 12.2005 7.36942 11.2114C7.41105 10.2974 7.56442 9.80145 7.69192 9.47047C7.86232 9.03277 8.06527 8.72047 8.39317 8.39213C8.72107 8.06378 9.03307 7.86053 9.47152 7.69088C9.80152 7.56218 10.2985 7.40992 11.2125 7.36837C12.2007 7.32292 12.4976 7.31385 15 7.31385C17.5024 7.31385 17.7996 7.32367 18.7886 7.36837C19.7027 7.41 20.1986 7.56337 20.5296 7.69088C20.9673 7.86053 21.2796 8.06422 21.608 8.39213C21.9363 8.72003 22.1388 9.03277 22.3092 9.47047C22.4379 9.80047 22.5902 10.2974 22.6317 11.2114C22.6772 12.2005 22.6862 12.4965 22.6862 15.0001C22.6862 17.5036 22.6772 17.7997 22.6317 18.7887C22.5901 19.7027 22.4371 20.1995 22.3092 20.5297C22.1388 20.9674 21.9359 21.2797 21.608 21.6073C21.2801 21.9349 20.9673 22.1381 20.5296 22.3085C20.1996 22.4372 19.7027 22.5895 18.7886 22.631C17.8004 22.6765 17.5036 22.6855 15 22.6855C12.4964 22.6855 12.2004 22.6765 11.2125 22.631ZM11.1349 5.68177C10.1368 5.72722 9.45487 5.88547 8.8593 6.11722C8.2425 6.35655 7.72035 6.67762 7.19857 7.19857C6.6768 7.71952 6.35655 8.2425 6.11722 8.8593C5.88547 9.45525 5.72722 10.1368 5.68177 11.1349C5.63558 12.1345 5.625 12.4541 5.625 15C5.625 17.5459 5.63558 17.8655 5.68177 18.8651C5.72722 19.8632 5.88547 20.5448 6.11722 21.1407C6.35655 21.7571 6.67687 22.2807 7.19857 22.8014C7.72027 23.3221 8.2425 23.6428 8.8593 23.8828C9.456 24.1145 10.1368 24.2728 11.1349 24.3182C12.135 24.3637 12.4541 24.375 15 24.375C17.5459 24.375 17.8655 24.3644 18.8651 24.3182C19.8632 24.2728 20.5448 24.1145 21.1407 23.8828C21.7571 23.6428 22.2796 23.3224 22.8014 22.8014C23.3232 22.2805 23.6428 21.7571 23.8828 21.1407C24.1145 20.5448 24.2735 19.8631 24.3182 18.8651C24.3637 17.8648 24.3742 17.5459 24.3742 15C24.3742 12.4541 24.3637 12.1345 24.3182 11.1349C24.2728 10.1368 24.1145 9.45487 23.8828 8.8593C23.6428 8.24287 23.3224 7.72035 22.8014 7.19857C22.2805 6.6768 21.7571 6.35655 21.1415 6.11722C20.5448 5.88547 19.8631 5.72648 18.8659 5.68177C17.8663 5.63633 17.5467 5.625 15.0007 5.625C12.4548 5.625 12.135 5.63558 11.1349 5.68177Z" fill="white"/>
</g>
<defs>
<radialGradient id="paint0_radial_2036_671" cx="0" cy="0" r="1" gradientUnits="userSpaceOnUse" gradientTransform="translate(7.96879 32.3106) rotate(-90) scale(29.7322 27.6533)">
<stop stop-color="#FFDD55"/>
<stop offset="0.1" stop-color="#FFDD55"/>
<stop offset="0.5" stop-color="#FF543E"/>
<stop offset="1" stop-color="#C837AB"/>
</radialGradient>
<radialGradient id="paint1_radial_2036_671" cx="0" cy="0" r="1" gradientUnits="userSpaceOnUse" gradientTransform="translate(7.96879 32.3106) rotate(-90) scale(29.7322 27.6533)">
<stop stop-color="#FFDD55"/>
<stop offset="0.1" stop-color="#FFDD55"/>
<stop offset="0.5" stop-color="#FF543E"/>
<stop offset="1" stop-color="#C837AB"/>
</radialGradient>
<radialGradient id="paint2_radial_2036_671" cx="0" cy="0" r="1" gradientUnits="userSpaceOnUse" gradientTransform="translate(-5.02516 2.16115) rotate(78.6806) scale(13.2904 54.7837)">
<stop stop-color="#3771C8"/>
<stop offset="0.128" stop-color="#3771C8"/>
<stop offset="1" stop-color="#6600FF" stop-opacity="0"/>
</radialGradient>
<clipPath id="clip0_2036_671">
<rect width="30" height="30" fill="white"/>
</clipPath>
</defs>
</svg>
