<svg width="30" height="30" viewBox="0 0 30 30" fill="none" xmlns="http://www.w3.org/2000/svg">
<rect width="30" height="30" rx="15" fill="#40AA1A"/>
<g clip-path="url(#clip0_2242_999)">
<path d="M10.2471 7.70282C10.1825 7.61976 10.101 7.5514 10.008 7.50226C9.91496 7.45312 9.81255 7.42433 9.70755 7.41782C9.60255 7.4113 9.49736 7.4272 9.39898 7.46446C9.3006 7.50171 9.21126 7.55948 9.13692 7.63392L8.00598 8.76595C7.4777 9.29532 7.28301 10.0445 7.5138 10.7019C8.47272 13.4222 10.0307 15.8922 12.0725 17.9294C14.1098 19.9712 16.5798 21.5292 19.3 22.4881C19.9574 22.7189 20.7066 22.5242 21.236 21.9959L22.3669 20.865C22.4414 20.7907 22.4991 20.7013 22.5364 20.603C22.5736 20.5046 22.5895 20.3994 22.583 20.2944C22.5765 20.1894 22.5477 20.087 22.4986 19.9939C22.4494 19.9009 22.3811 19.8194 22.298 19.7549L19.7747 17.7927C19.6859 17.724 19.5827 17.6763 19.4728 17.6532C19.363 17.6301 19.2493 17.6321 19.1404 17.6592L16.745 18.2575C16.4253 18.3369 16.0905 18.3324 15.773 18.2444C15.4555 18.1565 15.166 17.9881 14.9327 17.7555L12.2465 15.0681C12.0137 14.8349 11.8451 14.5455 11.7569 14.228C11.6688 13.9105 11.6641 13.5756 11.7433 13.2558L12.3427 10.8605C12.3698 10.7515 12.3718 10.6379 12.3487 10.528C12.3256 10.4181 12.2779 10.3149 12.2093 10.2261L10.2471 7.70282ZM8.31114 6.80923C8.50254 6.61777 8.73248 6.46922 8.9857 6.37344C9.23891 6.27766 9.50961 6.23684 9.77981 6.25371C10.05 6.27057 10.3135 6.34472 10.5529 6.47123C10.7922 6.59775 11.0019 6.77374 11.168 6.98751L13.1302 9.5097C13.49 9.97235 13.6169 10.575 13.4747 11.1438L12.8765 13.5391C12.8457 13.6631 12.8475 13.793 12.8816 13.9162C12.9157 14.0394 12.981 14.1517 13.0711 14.2424L15.7585 16.9297C15.8492 17.02 15.9617 17.0854 16.0851 17.1195C16.2085 17.1536 16.3386 17.1553 16.4629 17.1244L18.8571 16.5261C19.1378 16.4563 19.4306 16.4511 19.7137 16.5108C19.9967 16.5704 20.2625 16.6935 20.4911 16.8706L23.0133 18.8328C23.92 19.5383 24.0032 20.8781 23.1916 21.6886L22.0607 22.8195C21.2513 23.6289 20.0416 23.9844 18.914 23.5874C16.0272 22.573 13.4064 20.9205 11.2468 18.753C9.07936 16.5936 7.4269 13.9733 6.41239 11.0869C6.01645 9.96032 6.37192 8.74954 7.1813 7.94017L8.31114 6.80923Z" fill="white"/>
</g>
<defs>
<clipPath id="clip0_2242_999">
<rect width="17.5" height="17.5" fill="white" transform="translate(6.25 6.25)"/>
</clipPath>
</defs>
</svg>
